<svg version="1.1" id="Layer_1" xmlns="http://www.w3.org/2000/svg" xmlns:xlink="http://www.w3.org/1999/xlink" x="0px" y="0px"
	 width="100%" viewBox="0 0 1024 352" enable-background="new 0 0 1024 352" xml:space="preserve">
<path fill="#000000" opacity="1.000000" stroke="none" 
	d="
M811.318359,209.292877 
	C816.376160,205.145905 821.479736,201.673172 826.964600,198.838150 
	C831.234802,196.630981 831.614929,193.756348 829.102600,189.517456 
	C825.536865,191.613846 822.185852,193.714951 818.716980,195.599045 
	C808.182434,201.320847 797.740784,207.334503 785.756348,209.593063 
	C773.414673,211.918945 765.867859,204.373108 768.073730,192.084656 
	C768.394958,190.295029 768.789734,188.518616 769.276489,186.113144 
	C763.434509,190.588867 758.246399,195.110199 751.334229,196.923553 
	C749.559937,197.389023 748.223022,199.801224 746.844421,201.452118 
	C732.505493,218.623154 717.507019,235.128876 699.339600,248.416733 
	C694.622803,251.866669 689.640747,254.898453 683.983704,256.628357 
	C674.031860,259.671631 668.120789,255.880341 666.625671,245.608475 
	C665.381226,237.059219 666.695923,228.670120 668.359741,220.367737 
	C669.984985,212.257492 672.179626,204.261337 674.310974,195.442932 
	C668.560852,198.777924 663.525513,201.878387 658.325012,204.671356 
	C650.963074,208.625137 643.401123,212.152435 634.796570,212.285202 
	C623.181519,212.464432 617.703979,205.521454 620.369141,194.106720 
	C620.664734,192.840561 620.906921,191.561951 621.347778,189.460175 
	C614.324585,191.903259 608.539734,195.463058 602.352661,198.070755 
	C592.764465,202.112000 587.216736,208.848480 583.044556,218.588089 
	C570.420532,248.057800 555.163879,276.208954 534.363586,300.884521 
	C523.704224,313.529968 511.970825,325.115082 496.747955,332.486115 
	C489.701843,335.897980 482.443024,337.788574 474.569122,337.312897 
	C469.207153,336.989014 466.757721,334.987183 465.739655,329.706848 
	C464.386597,322.689301 465.971100,316.141724 468.919250,309.838165 
	C476.143127,294.392792 486.851471,281.425171 498.306854,269.039337 
	C520.064453,245.514648 545.115967,225.986038 572.145691,208.941132 
	C575.857910,206.600235 578.304382,203.911880 579.855835,199.708847 
	C583.079224,190.975861 587.251953,182.586914 588.850769,173.300613 
	C589.184570,171.362183 590.169128,169.125717 587.862122,167.914093 
	C585.810791,166.836746 583.882141,168.161896 582.465149,169.522629 
	C576.577209,175.176926 570.793518,180.940933 565.022217,186.715271 
	C559.601257,192.139099 554.270020,197.670883 547.759338,201.826843 
	C545.670837,203.159988 543.445496,204.409912 541.114868,205.207245 
	C534.814758,207.362625 532.674316,205.564301 531.093933,197.066650 
	C528.579041,196.993225 526.887512,198.770493 524.948242,199.904816 
	C516.454834,204.872849 507.996399,209.879684 498.144501,211.808914 
	C495.325439,212.360962 492.495697,212.486221 489.688202,212.193176 
	C481.603180,211.349304 476.239899,204.552383 477.959778,196.736191 
	C481.740753,179.552765 492.708923,167.668152 507.127533,158.532623 
	C508.364899,157.748657 509.875610,157.293457 511.322723,156.964752 
	C514.255371,156.298599 517.058044,156.711197 519.061951,159.163330 
	C521.127625,161.690964 520.617126,164.489258 519.220398,167.131042 
	C515.837341,173.529648 510.414032,177.874069 503.622681,179.564224 
	C495.398895,181.610886 492.232452,187.581467 489.919373,194.521194 
	C487.207123,202.658600 491.111511,206.946945 499.494232,205.230179 
	C508.364594,203.413544 515.599060,198.208038 523.163757,193.680481 
	C530.107666,189.524429 536.257751,184.865128 539.289551,176.760559 
	C540.832703,172.635559 543.818054,169.018799 546.344299,165.303375 
	C548.175598,162.610062 550.966736,161.593109 553.689331,163.586060 
	C556.475586,165.625580 556.544922,168.314804 554.591309,171.460785 
	C551.089783,177.099350 547.927246,182.959183 544.849731,188.845093 
	C543.585510,191.263016 542.188904,193.803452 542.532227,196.996872 
	C545.205078,197.268814 546.600037,195.525177 548.210876,194.217163 
	C557.426636,186.734100 565.076111,177.633743 573.703552,169.543991 
	C578.084473,165.436157 582.511047,161.348740 587.859497,158.516617 
	C595.398193,154.524780 599.659241,157.238174 599.640625,165.783478 
	C599.620728,174.938095 596.763123,183.459290 593.980835,192.007553 
	C593.730469,192.776703 593.574768,193.576691 593.390991,194.299942 
	C594.893433,195.645233 596.046021,194.646622 597.164307,194.099487 
	C600.155701,192.635864 603.028992,190.902832 606.092957,189.620224 
	C617.786865,184.724991 629.005554,179.506912 636.510010,168.299271 
	C639.882874,163.262192 645.413757,159.833359 651.298584,157.556747 
	C655.042114,156.108521 658.660828,156.123154 661.231018,159.580872 
	C663.624329,162.800613 661.967163,165.888031 660.120422,168.805862 
	C655.933594,175.421005 649.327332,178.523117 642.325256,180.970612 
	C636.474792,183.015533 629.565308,194.947266 631.026062,200.817230 
	C631.891907,204.296738 634.441467,205.602295 637.741150,205.614655 
	C641.993530,205.630585 645.947449,204.279129 649.718140,202.454987 
	C659.052124,197.939590 667.620728,192.176758 676.036804,186.165756 
	C678.227600,184.601044 679.068542,182.332443 679.941345,179.957443 
	C693.894226,141.989777 710.981506,105.546394 733.392517,71.778137 
	C741.329590,59.818916 750.315979,48.638241 761.660706,39.607388 
	C766.394104,35.839359 771.506775,32.743382 777.421021,31.201117 
	C785.957703,28.975008 791.123840,32.925217 791.392700,41.638195 
	C791.649536,49.965199 788.309143,57.240921 784.877563,64.459625 
	C775.781738,83.593246 762.867615,100.149933 749.360168,116.257011 
	C732.006470,136.950592 713.894836,156.955063 693.947937,175.210556 
	C690.968506,177.937378 690.679504,181.705582 689.422852,184.998856 
	C683.421021,200.727325 678.479675,216.803680 676.578491,233.614288 
	C675.986450,238.848785 675.152344,244.901062 680.288696,248.299637 
	C685.178467,251.535049 689.604492,247.427032 693.454407,244.967819 
	C707.049500,236.283783 718.089661,224.646545 729.006653,212.933121 
	C732.299438,209.400085 735.399475,205.686554 738.564087,202.035156 
	C742.677551,197.288956 746.405579,192.660370 747.784119,185.962631 
	C749.450562,177.866074 755.220337,171.947632 762.379700,167.738495 
	C766.842285,165.114853 771.437134,164.403427 775.728760,167.831573 
	C776.889099,168.106033 777.406006,167.372543 778.060852,166.887451 
	C780.334351,165.203430 782.780640,165.049408 784.969666,166.797989 
	C787.137634,168.529755 786.768799,171.050400 785.876160,173.243607 
	C784.308105,177.096420 782.325012,180.779602 780.736633,184.625092 
	C779.079529,188.637115 777.810059,192.772308 778.131348,197.230255 
	C778.389954,200.817505 780.250061,202.668808 783.832458,202.880066 
	C788.474304,203.153778 792.708740,201.642883 796.856140,199.870102 
	C806.846252,195.599854 816.109802,189.992493 825.346924,184.327408 
	C827.676208,182.898849 828.407654,181.184113 827.996460,178.522400 
	C827.352661,174.354874 828.030640,170.197540 828.873840,166.115143 
	C832.248291,149.777496 850.169312,139.716003 866.527527,144.924652 
	C869.033813,145.722733 870.537842,147.319489 870.190369,150.106384 
	C869.796753,153.263367 867.799622,154.853302 864.748901,154.838715 
	C861.100647,154.821274 857.503601,154.429214 853.815491,155.085693 
	C843.337524,156.950714 838.469055,162.041992 838.505615,172.643494 
	C838.523193,177.755005 839.673462,182.865723 840.358521,187.970398 
	C840.679504,190.362915 842.046021,191.043701 844.273193,190.173782 
	C854.989746,185.987854 865.956970,182.586121 877.056946,179.575806 
	C880.759949,178.571548 881.033691,174.836090 882.108582,172.041321 
	C891.152344,148.525711 901.770996,125.734390 913.659546,103.546219 
	C924.379150,83.539726 935.990295,64.083527 951.847168,47.567673 
	C958.119507,41.034615 964.941650,35.183662 973.644287,32.059700 
	C985.037598,27.969831 991.195007,32.607944 990.287354,44.745285 
	C989.730469,52.191475 986.528870,58.857395 983.330933,65.458824 
	C972.906006,86.978600 957.778442,105.205170 942.423401,123.216003 
	C926.959961,141.353973 910.624329,158.704056 893.442261,175.235046 
	C889.716431,178.819702 889.808777,183.969269 888.055664,188.557129 
	C891.065491,184.976776 894.053711,181.378036 897.090027,177.820282 
	C901.859192,172.231979 906.850159,166.854950 912.972107,162.701675 
	C921.916626,156.633438 928.445312,159.807846 929.235962,170.603806 
	C929.758118,177.734024 928.755127,184.909836 930.162354,192.036118 
	C931.704895,199.847458 935.951050,202.098816 943.062805,198.222000 
	C951.022400,193.883026 957.480347,187.507614 964.557678,181.967728 
	C966.752136,180.250015 969.159058,175.586655 972.185242,179.146667 
	C975.027649,182.490402 970.334778,184.521011 968.264954,186.431015 
	C961.024292,193.112625 952.919495,198.691238 944.583557,203.923019 
	C943.601440,204.539413 942.510864,204.989044 941.453064,205.478043 
	C928.153076,211.626434 920.675232,207.125717 919.591553,192.464401 
	C919.284058,188.303665 918.983459,184.192825 919.517761,180.018631 
	C919.810913,177.728012 919.738647,175.334045 919.430359,173.040573 
	C919.175964,171.148224 919.261047,168.679596 917.087952,167.852188 
	C914.902954,167.020279 913.278137,168.824875 911.948486,170.214417 
	C908.265503,174.063141 904.650269,177.990326 901.221558,182.065903 
	C893.588562,191.138870 886.939514,200.909744 880.953674,211.144974 
	C879.703064,213.283340 878.213318,215.333160 876.547241,217.162842 
	C874.890564,218.982330 872.650574,219.955017 870.240295,218.640305 
	C867.888062,217.357224 868.033264,215.023117 868.634583,212.882568 
	C870.389099,206.637009 872.287720,200.431870 874.136047,194.212723 
	C874.834534,191.862473 875.549866,189.517227 876.522461,186.290344 
	C864.766113,188.823334 854.254028,192.203613 844.115723,196.784622 
	C841.748962,197.854019 842.303833,200.086288 842.200317,202.023773 
	C841.536682,214.433060 836.469543,224.374039 826.140930,231.610733 
	C820.830139,235.331711 815.018921,235.908997 808.963013,235.128540 
	C804.098389,234.501587 800.893127,228.241486 802.146667,222.478043 
	C803.349426,216.948196 807.057434,213.139572 811.318359,209.292877 
M507.380829,312.881958 
	C537.657349,287.304688 554.789490,252.909897 572.181335,218.216858 
	C569.771362,217.574402 568.865967,218.410522 567.923279,219.022736 
	C542.396118,235.601181 519.087769,254.806290 498.767212,277.537415 
	C491.322266,285.865509 484.328888,294.543945 478.806458,304.298584 
	C476.019226,309.221802 473.294800,314.204132 473.183746,320.105194 
	C473.101624,324.466431 475.351440,326.526764 479.567261,326.657257 
	C483.658661,326.783905 487.476074,325.707764 491.070526,323.830414 
	C496.695526,320.892548 501.911316,317.328400 507.380829,312.881958 
M927.643860,131.158890 
	C939.964417,117.601738 951.949646,103.764626 962.321777,88.626160 
	C970.042175,77.357979 977.428955,65.857948 982.515076,53.116241 
	C983.903076,49.638985 986.859924,45.337574 982.963562,42.036713 
	C978.990723,38.670952 975.492432,42.639038 972.247314,44.510777 
	C963.156189,49.754494 956.251709,57.432816 949.844971,65.584892 
	C935.991882,83.211990 925.293030,102.772247 915.139709,122.640503 
	C908.668335,135.303970 902.576111,148.159317 897.180847,162.856766 
	C908.507629,152.417450 917.595276,141.812546 927.643860,131.158890 
M765.526367,50.042515 
	C760.123230,54.067257 755.954468,59.281467 751.846252,64.511162 
	C732.790833,88.768463 718.986877,116.072113 706.079895,143.878632 
	C703.403809,149.643875 701.023682,155.546463 698.507141,161.385742 
	C708.701233,153.331100 717.017090,143.804443 725.599243,134.555176 
	C743.395142,115.376068 760.302185,95.466431 773.592041,72.790550 
	C778.211487,64.908607 782.872253,56.993309 785.273071,48.044865 
	C785.901917,45.701221 786.051086,43.380882 783.854736,41.671524 
	C781.767639,40.047272 779.704529,41.051563 777.770203,42.002274 
	C773.576355,44.063564 769.675232,46.603699 765.526367,50.042515 
M830.738098,204.166962 
	C822.480774,207.047256 816.203308,212.620148 810.668518,219.124100 
	C809.339111,220.686325 807.335632,222.662064 809.173523,224.796249 
	C810.743958,226.619949 813.292847,226.025757 815.260437,225.158142 
	C824.219543,221.207657 830.365479,215.001144 830.738098,204.166962 
M760.067139,184.768692 
	C759.763672,185.161789 759.411926,185.528793 759.178528,185.959839 
	C759.074646,186.151703 759.209229,186.472656 759.263733,187.015686 
	C763.571228,183.978485 767.247864,180.605545 770.561279,176.336960 
	C767.584717,174.590057 766.023865,176.251480 764.338013,177.465576 
	C762.000366,179.149139 762.171570,182.255646 760.067139,184.768692 
z"/>
<path fill="#000000" opacity="1.000000" stroke="none" 
	d="
M217.862244,77.888809 
	C209.106857,85.238480 200.005814,91.368225 189.418869,94.897621 
	C186.417801,95.898102 185.413818,98.191628 184.362625,100.627609 
	C175.190659,121.882538 166.090836,143.168732 156.871887,164.403214 
	C142.939148,196.495148 129.149338,228.665527 109.390923,257.799255 
	C109.215607,258.057739 109.199387,258.424103 109.026245,259.028656 
	C109.417328,259.350464 109.836479,259.950104 110.383507,260.108765 
	C130.080261,265.820007 148.639099,274.757294 168.320969,280.511230 
	C184.180710,285.147827 200.023422,287.242889 216.538589,283.376892 
	C229.489731,280.345215 238.740341,272.457947 247.410614,263.286102 
	C248.554550,262.075989 249.559769,260.732666 250.726501,259.546722 
	C252.128784,258.121338 253.745941,256.264465 255.763672,258.246429 
	C257.574371,260.025085 256.391571,262.038422 255.014923,263.575958 
	C250.901077,268.170532 246.645721,272.640350 241.858994,276.550262 
	C224.150482,291.015045 203.815536,293.822266 182.007355,289.899811 
	C161.522339,286.215363 142.713699,277.403870 123.238861,270.627014 
	C118.367584,268.931915 113.361786,267.618713 108.510323,265.872925 
	C105.328491,264.727966 103.307732,265.508057 101.260506,268.187561 
	C92.800346,279.260742 81.986221,287.507721 69.388077,293.309784 
	C63.664852,295.945618 57.735958,298.247040 51.094128,296.510590 
	C45.706806,295.102142 41.243279,292.352203 40.057186,286.823517 
	C38.695816,280.477844 38.176407,273.943054 43.639050,268.647064 
	C53.823841,258.772980 66.125130,254.729660 80.053726,255.193695 
	C84.531364,255.342880 89.023010,255.820190 93.449219,256.520477 
	C96.815948,257.053131 98.270996,255.025558 99.843697,252.808395 
	C112.040100,235.614075 121.758682,217.037231 130.648499,197.978424 
	C144.946655,167.324753 157.763153,136.033554 170.912521,104.884926 
	C171.549240,103.376633 172.412109,101.911201 172.026978,99.429405 
	C166.370255,99.685051 160.625397,100.251877 154.917160,99.352654 
	C147.953568,98.255676 141.175659,96.650780 135.103531,92.937531 
	C121.815659,84.811684 116.642960,70.645027 121.308289,55.820087 
	C123.700584,48.218147 127.853714,41.637684 132.630524,35.386993 
	C133.866074,33.770237 135.301804,31.976938 137.572357,33.560356 
	C140.191910,35.387161 138.590500,37.422295 137.304535,39.137791 
	C132.886765,45.031174 128.835800,51.116364 126.608795,58.225723 
	C123.306931,68.766403 125.983971,77.734367 134.321182,84.743851 
	C146.208206,94.737801 160.176666,95.042519 174.570740,92.549500 
	C177.132477,92.105820 177.591049,89.608467 178.459991,87.711418 
	C184.846909,73.767715 191.417587,59.919189 199.842728,47.056625 
	C204.702209,39.637653 210.305008,32.831497 217.231781,27.201626 
	C221.774887,23.509132 226.842285,21.383072 232.815033,21.441729 
	C240.408066,21.516296 244.570389,25.197046 245.261230,32.822586 
	C245.726135,37.954407 244.375183,42.728710 242.182663,47.299088 
	C236.458923,59.230404 227.914597,68.932785 217.862244,77.888809 
M223.801117,64.306519 
	C226.196472,61.330467 228.714020,58.443310 230.958710,55.357655 
	C234.377914,50.657486 237.795776,45.913834 239.244690,40.135010 
	C240.823700,33.837357 237.336685,30.462278 231.152908,32.006062 
	C225.422867,33.436573 221.020752,36.540588 217.274948,41.080898 
	C206.805573,53.770832 199.491501,68.286224 192.511551,83.010895 
	C191.915222,84.268898 190.713593,85.461998 191.474487,87.440407 
	C203.900406,82.333534 213.994614,74.127289 223.801117,64.306519 
M54.892765,285.782104 
	C58.497028,286.231903 61.859325,285.306030 65.030945,283.753235 
	C74.076653,279.324493 82.167328,273.553802 89.071472,266.186768 
	C89.928780,265.271973 91.258324,264.550354 90.859367,262.473145 
	C82.755234,260.509857 74.606468,260.942566 66.483727,263.052063 
	C60.771847,264.535492 55.440353,266.895905 51.172016,271.055847 
	C45.023964,277.047760 46.358120,283.434601 54.892765,285.782104 
z"/>
<path fill="#000000" opacity="1.000000" stroke="none" 
	d="
M295.997253,181.029114 
	C298.189514,175.400101 300.262756,170.131317 302.282837,164.842270 
	C303.599609,161.394714 305.603973,158.682312 309.696777,160.128510 
	C313.864563,161.601196 313.591827,164.865112 312.222534,168.383606 
	C310.014526,174.057037 307.967560,179.793152 305.583862,186.228317 
	C313.163513,177.730072 319.428589,169.069778 327.840607,162.446075 
	C329.533661,161.112961 331.294830,159.813599 333.184448,158.795273 
	C335.992340,157.282074 339.072662,155.746170 342.109253,157.922455 
	C345.178192,160.121887 345.147827,163.572205 344.873657,166.983017 
	C344.174255,175.683838 341.175293,183.858261 339.155518,192.256805 
	C338.384125,195.464386 336.707062,199.372406 339.549866,201.636642 
	C342.536530,204.015457 345.802826,200.921051 348.622345,199.471558 
	C354.111053,196.649872 359.135986,193.055145 364.044952,189.305313 
	C366.244659,187.625031 367.619720,185.470169 368.756348,182.994492 
	C371.755798,176.461472 376.323639,171.232559 382.586243,167.658661 
	C386.507416,165.420914 390.691315,164.310944 394.787354,167.263138 
	C396.518677,168.510941 397.425537,167.422256 398.687286,166.602280 
	C400.846130,165.199310 403.193665,165.134613 405.166534,166.859161 
	C407.210663,168.646057 407.017456,170.998444 406.022125,173.297531 
	C403.972412,178.032013 401.852081,182.736130 399.828949,187.481796 
	C399.310150,188.698792 398.977814,190.008224 398.674561,191.302094 
	C396.439941,200.836792 400.404175,204.832245 409.891113,202.304077 
	C419.981720,199.615036 428.899261,194.313309 437.766174,189.008270 
	C443.196442,185.759415 448.477814,182.260956 453.812927,178.854034 
	C455.551666,177.743698 457.284973,177.317902 458.597595,179.299942 
	C459.808990,181.129013 458.599701,182.566620 457.216980,183.546402 
	C441.395020,194.758041 425.098785,205.226227 405.865509,209.494873 
	C393.554657,212.227158 386.053772,204.441650 388.189758,192.091110 
	C388.499176,190.302078 388.854706,188.521027 389.270416,186.300812 
	C386.014557,188.711609 383.122131,191.039673 380.041840,193.084747 
	C376.546204,195.405594 372.926544,197.574554 368.446045,195.429550 
	C366.497314,194.496613 365.375000,196.251678 364.071808,197.110886 
	C356.687592,201.979263 349.262878,206.858948 340.650146,209.219345 
	C330.841125,211.907593 326.115082,207.653229 326.399078,197.557922 
	C326.632538,189.258743 329.474762,181.588089 331.187622,173.643723 
	C331.593811,171.759811 332.395294,169.837189 330.779022,167.507172 
	C326.468506,170.303299 323.462830,174.265854 320.264709,177.963287 
	C312.521118,186.915909 305.356689,196.320572 298.617859,206.058075 
	C296.260559,209.464310 293.376404,214.061356 288.785400,211.564743 
	C284.138489,209.037720 287.665131,204.494904 288.614227,200.822571 
	C289.101624,198.936783 290.322418,197.232697 290.060913,194.591080 
	C286.799835,196.268738 283.736755,197.768936 280.745667,199.401077 
	C276.295837,201.829224 271.547546,203.279800 266.545074,203.911591 
	C259.621216,204.786011 255.301880,201.726135 253.730911,195.007492 
	C252.673172,190.483765 252.594650,185.915680 253.248871,180.401108 
	C246.342972,189.014328 240.340256,197.188934 232.818619,204.021622 
	C229.215515,207.294662 225.432816,210.319748 220.523026,211.329269 
	C214.837173,212.498337 211.840164,210.219040 211.559433,204.444458 
	C211.230804,197.684586 212.711182,191.220520 215.238083,184.976715 
	C218.626694,176.603622 223.262787,168.887039 227.842041,161.145706 
	C229.593399,158.184982 232.041168,156.825729 235.365173,158.784866 
	C238.626923,160.707291 238.786011,163.346039 237.039917,166.453217 
	C231.816055,175.748962 226.577148,185.044540 222.590652,194.961975 
	C221.561157,197.523117 220.289871,200.194321 221.928741,203.107178 
	C224.665146,203.727066 226.356354,201.937744 228.058319,200.461243 
	C239.394089,190.627045 247.770920,178.400925 255.806427,165.908600 
	C256.797699,164.367508 257.726349,162.785889 258.672546,161.216125 
	C260.426514,158.306229 262.509277,155.951279 266.330109,157.611526 
	C270.311279,159.341431 269.585419,162.463852 268.490112,165.650253 
	C266.162628,172.421143 263.918243,179.211441 262.762970,186.314804 
	C262.356018,188.817047 262.126465,191.240509 262.983521,193.697571 
	C263.843903,196.164185 265.427704,197.485947 268.096405,197.722748 
	C275.386047,198.369583 292.937866,188.095657 295.997253,181.029114 
M377.556274,188.035965 
	C382.807678,185.204315 386.654297,180.938446 391.203979,176.050797 
	C386.578003,174.949493 384.131042,176.775436 383.085907,179.224579 
	C381.676910,182.526459 379.194611,184.871613 377.556274,188.035965 
z"/>
</svg>