<?xml version="1.0" standalone="no"?>
<!DOCTYPE svg PUBLIC "-//W3C//DTD SVG 20010904//EN"
 "http://www.w3.org/TR/2001/REC-SVG-20010904/DTD/svg10.dtd">
<svg version="1.0" xmlns="http://www.w3.org/2000/svg"
 width="1186.000000pt" height="1294.000000pt" viewBox="0 0 1186.000000 1294.000000"
 preserveAspectRatio="xMidYMid meet">

<g transform="translate(0.000000,1294.000000) scale(0.100000,-0.100000)"
fill="#000000" stroke="none">
<path d="M5690 11121 c-41 -10 -82 -20 -90 -23 -16 -7 -82 -26 -185 -53 -115
-31 -205 -70 -263 -113 l-34 -24 -147 12 c-147 13 -148 13 -267 -15 -140 -33
-288 -97 -394 -170 -71 -49 -76 -54 -97 -116 -12 -35 -22 -71 -22 -80 -1 -9
-7 -29 -15 -45 -8 -16 -19 -79 -24 -141 -6 -61 -13 -117 -17 -122 -9 -16 -45
-13 -106 7 -30 10 -81 24 -114 31 -33 7 -82 19 -110 27 -72 19 -402 37 -528
30 -162 -10 -210 -21 -331 -73 -94 -40 -120 -57 -168 -106 -35 -35 -72 -87
-94 -130 -31 -64 -36 -84 -43 -177 -7 -106 -5 -125 35 -282 8 -35 21 -92 29
-128 22 -112 55 -191 134 -324 76 -130 154 -221 263 -309 38 -31 57 -39 102
-44 l56 -6 0 34 c-1 46 -25 110 -46 122 -31 17 -83 79 -140 164 -30 44 -54 83
-54 86 0 3 -18 36 -40 73 -39 67 -110 269 -129 369 -15 75 -8 258 10 286 9 13
24 48 34 77 23 64 49 94 78 90 16 -2 23 -11 25 -33 8 -96 38 -228 64 -283 32
-68 82 -112 188 -170 90 -48 162 -64 290 -66 95 -1 127 3 185 22 115 38 292
166 354 256 15 23 40 59 54 80 16 22 27 52 27 71 0 18 6 35 13 38 32 12 168
-61 314 -171 64 -47 131 -123 232 -263 25 -35 0 -42 -69 -20 -54 18 -72 19
-131 11 -104 -15 -228 -54 -299 -95 -88 -51 -170 -131 -170 -167 0 -112 107
-127 234 -31 108 81 248 135 276 107 5 -5 11 -55 12 -109 2 -87 -1 -108 -24
-167 -36 -93 -92 -157 -175 -201 -38 -19 -83 -38 -101 -42 -30 -6 -33 -10 -27
-33 9 -37 41 -69 83 -83 47 -15 151 -5 200 20 55 28 161 151 189 220 44 106
73 201 79 258 8 86 13 103 29 103 15 0 33 -35 60 -119 9 -25 20 -55 25 -66 5
-11 23 -56 39 -100 72 -196 160 -385 273 -588 56 -101 108 -212 128 -272 14
-43 71 -110 111 -131 43 -22 77 -17 110 15 26 26 29 36 29 92 0 49 -7 77 -31
128 -49 105 -149 305 -228 456 -40 76 -88 178 -106 226 -19 48 -45 108 -58
135 -14 27 -48 110 -76 184 -29 74 -57 146 -63 160 -6 14 -19 61 -29 104 -9
44 -26 91 -37 106 -11 14 -33 53 -50 86 -31 60 -96 124 -165 163 -100 56 -177
109 -222 153 -28 26 -55 48 -59 48 -18 0 -77 52 -93 83 -33 61 -14 276 33 369
32 63 167 149 319 204 57 21 209 29 288 15 145 -25 280 -82 387 -163 82 -62
136 -131 195 -249 26 -51 68 -120 93 -155 56 -74 117 -168 154 -237 15 -28 39
-66 52 -86 14 -20 29 -48 35 -62 5 -14 39 -71 75 -127 76 -117 91 -145 110
-204 24 -74 36 -146 36 -223 0 -40 7 -109 15 -152 8 -43 15 -117 15 -164 0
-57 4 -90 13 -97 26 -22 89 -52 106 -52 21 0 68 50 82 88 5 14 12 120 14 236
4 185 2 220 -15 294 -11 46 -20 94 -20 107 0 28 -48 119 -122 232 -29 45 -65
103 -80 130 -83 145 -141 233 -246 375 -68 92 -77 115 -77 197 l0 77 -98 97
c-79 77 -109 99 -150 113 -78 25 -167 72 -167 88 0 16 83 48 200 76 41 11 102
26 135 34 159 41 361 -5 590 -134 277 -155 371 -227 585 -446 320 -328 385
-409 449 -555 11 -25 27 -52 36 -59 9 -8 50 -83 91 -167 74 -154 96 -226 115
-368 6 -38 14 -86 19 -105 34 -133 59 -382 52 -527 -3 -84 -1 -108 12 -128 28
-43 108 -30 154 25 28 33 60 118 66 175 10 96 -65 689 -100 798 -16 48 -14 77
6 77 21 0 153 -137 187 -195 34 -57 53 -122 110 -380 9 -38 24 -97 33 -130 31
-105 70 -289 70 -323 0 -55 24 -99 69 -121 22 -12 42 -25 46 -31 3 -5 27 -16
53 -24 118 -36 215 -104 327 -231 33 -38 79 -89 101 -114 87 -96 172 -221 227
-332 31 -63 57 -118 57 -122 0 -3 11 -30 24 -59 40 -86 71 -168 100 -264 15
-49 31 -96 36 -105 17 -32 60 -206 85 -349 88 -500 109 -701 102 -1010 -4
-209 -10 -277 -39 -450 -5 -36 -14 -108 -18 -160 -9 -114 -32 -256 -65 -405
-13 -60 -31 -144 -40 -185 -19 -90 -67 -252 -100 -335 -13 -33 -33 -87 -45
-120 -47 -127 -89 -190 -145 -216 -42 -20 -65 -39 -122 -106 -23 -26 -46 -37
-138 -62 -61 -17 -117 -31 -125 -31 -30 0 -256 -118 -293 -153 -34 -32 -38
-40 -35 -79 3 -36 8 -45 33 -57 17 -8 59 -15 95 -15 56 0 77 6 150 41 47 23
103 44 125 48 50 8 237 71 287 96 67 34 84 28 173 -63 44 -46 87 -96 95 -113
8 -16 26 -48 39 -70 53 -87 150 -301 188 -415 8 -25 18 -54 23 -65 26 -66 66
-198 79 -265 24 -121 73 -595 78 -758 6 -190 8 -195 64 -172 38 16 72 61 94
125 21 63 21 194 0 360 -8 66 -15 147 -15 181 0 88 -44 375 -73 474 -14 47
-44 139 -67 205 -23 66 -51 147 -62 180 -25 75 -180 393 -205 420 -10 11 -43
49 -72 85 -30 36 -62 71 -72 78 -10 7 -21 28 -25 47 -5 28 1 46 28 97 87 157
137 300 198 558 17 74 37 155 45 180 7 25 20 83 30 130 9 47 22 99 27 115 11
34 22 105 43 285 8 69 21 159 30 200 38 181 62 675 43 884 -10 106 -27 233
-38 276 -5 19 -12 76 -16 125 -7 102 -94 481 -148 645 -117 357 -198 517 -387
765 -69 91 -316 331 -389 379 -94 61 -142 106 -189 176 -59 86 -117 251 -146
410 -63 355 -96 430 -258 592 -94 94 -234 192 -367 255 -107 50 -138 77 -207
175 -78 111 -200 247 -403 448 -194 193 -269 260 -340 305 -26 17 -74 48 -106
69 -157 104 -351 204 -490 250 -173 57 -353 70 -504 37z m-2125 -971 c101 -11
203 -28 235 -39 14 -5 51 -17 82 -26 31 -10 59 -23 62 -30 6 -16 -81 -128
-174 -228 -107 -113 -224 -164 -333 -143 -41 8 -122 60 -143 92 -23 34 -41
126 -49 247 -10 149 -8 151 135 142 58 -4 141 -11 185 -15z m5900 -5180 c3 -5
-1 -10 -10 -10 -9 0 -13 5 -10 10 3 6 8 10 10 10 2 0 7 -4 10 -10z"/>
<path d="M6380 10141 c-70 -15 -100 -44 -100 -95 0 -16 10 -32 30 -46 25 -18
52 -23 173 -30 185 -12 306 -51 282 -91 -4 -6 -36 -24 -71 -40 -62 -28 -94
-59 -94 -89 0 -20 74 -68 118 -76 20 -4 59 0 99 11 55 15 73 26 120 74 122
124 130 166 45 247 -42 40 -84 61 -215 105 -80 27 -109 31 -222 34 -71 2 -146
1 -165 -4z"/>
<path d="M5495 9879 c-75 -23 -141 -66 -182 -117 -49 -60 -52 -85 -19 -125 18
-23 33 -29 77 -34 51 -5 57 -3 99 31 25 20 64 46 88 58 40 21 45 21 70 7 43
-24 53 -54 49 -149 -5 -123 -41 -185 -132 -232 -106 -55 -79 -127 54 -144 50
-6 62 -4 117 25 75 39 101 66 150 155 37 68 38 71 37 175 -1 180 -44 272 -152
330 -53 28 -67 31 -142 30 -46 0 -97 -5 -114 -10z"/>
<path d="M3205 8580 c-66 -44 -54 -81 58 -177 244 -209 302 -273 388 -423 77
-133 107 -213 89 -235 -10 -12 -19 -11 -59 9 -137 70 -501 122 -672 97 -41 -6
-123 -15 -184 -21 -158 -13 -303 -44 -387 -83 -40 -19 -95 -42 -122 -52 -51
-19 -139 -100 -181 -165 -12 -19 -32 -44 -44 -54 -11 -11 -21 -22 -21 -26 0
-4 -18 -35 -40 -68 -22 -33 -40 -63 -40 -67 0 -4 -13 -23 -30 -41 -33 -38 -63
-125 -54 -159 6 -24 38 -42 119 -69 41 -13 64 -31 130 -104 44 -48 139 -146
212 -219 127 -127 257 -289 335 -418 20 -33 55 -114 78 -180 41 -116 43 -125
48 -271 4 -133 2 -160 -16 -215 -50 -161 -98 -327 -113 -397 -50 -225 -58
-294 -58 -514 -1 -253 19 -459 62 -643 72 -305 94 -366 206 -595 132 -269 309
-465 551 -611 66 -41 143 -85 275 -159 101 -57 300 -151 400 -190 192 -73 185
-70 185 -102 0 -15 -14 -52 -30 -82 -17 -29 -37 -75 -44 -102 -22 -74 -75
-351 -86 -446 -5 -46 -14 -119 -20 -163 -5 -44 -15 -116 -20 -160 -19 -151 2
-532 40 -725 4 -25 18 -94 30 -155 12 -60 26 -130 30 -155 5 -25 18 -76 29
-115 11 -38 33 -119 49 -179 17 -59 37 -115 46 -125 22 -21 96 -20 131 3 14 9
35 37 47 61 l22 45 -37 127 c-20 71 -39 148 -43 173 -4 25 -19 90 -34 145 -15
55 -33 129 -39 165 -5 36 -17 101 -26 145 -33 173 -29 717 7 858 5 21 16 93
24 160 8 67 21 151 30 187 8 36 22 97 31 135 8 39 26 92 40 119 25 49 162 196
184 196 6 0 51 18 100 40 48 22 139 56 201 76 62 20 119 41 127 48 23 18 53
96 47 121 -6 24 -67 55 -109 55 -59 0 -357 -101 -440 -150 -48 -28 -138 -51
-198 -51 -103 0 -317 93 -649 282 -206 117 -228 133 -369 272 -130 127 -197
222 -276 391 -67 141 -145 370 -155 456 -4 36 -17 97 -29 135 -22 73 -43 346
-42 560 1 107 25 295 46 360 7 22 16 65 20 95 8 63 24 127 66 255 41 130 82
304 74 323 -4 10 -10 67 -15 127 -10 122 -49 260 -95 339 -33 56 -30 72 25
144 59 80 108 187 126 277 22 117 23 382 1 457 -32 106 -196 246 -317 270 -25
6 -76 19 -115 30 -51 15 -104 21 -197 22 -70 1 -131 6 -135 10 -12 12 44 52
111 79 158 65 327 92 581 91 227 0 387 -36 550 -123 130 -70 192 -117 232
-178 29 -43 53 -65 102 -92 l65 -36 33 -94 c18 -52 44 -117 58 -144 14 -28 25
-57 25 -64 0 -19 60 -46 99 -45 81 3 109 54 93 175 -15 117 -113 362 -193 482
-15 22 -30 51 -34 65 -4 14 -16 39 -26 57 -11 17 -30 63 -43 101 -20 59 -121
278 -173 377 -9 17 -66 86 -128 155 -61 69 -123 141 -137 160 -15 20 -63 57
-107 83 -44 27 -83 52 -86 58 -4 5 -41 9 -83 9 -60 0 -84 -5 -107 -20z m-640
-1305 c129 -33 213 -71 252 -113 62 -67 93 -173 93 -316 0 -119 -49 -286 -83
-286 -7 0 -96 87 -197 192 -102 106 -224 232 -272 279 -49 48 -88 93 -88 100
0 7 10 23 21 35 19 21 20 27 9 53 -18 44 -9 55 56 68 64 13 129 9 209 -12z"/>
<path d="M6607 7399 c-11 -6 -25 -26 -33 -45 -20 -47 -3 -83 75 -167 96 -102
182 -147 283 -147 94 0 148 32 148 87 0 40 -23 88 -45 97 -9 3 -36 6 -60 6
-49 0 -92 23 -192 104 -52 43 -118 76 -148 76 -5 -1 -18 -5 -28 -11z"/>
<path d="M7640 7387 c-37 -18 -54 -56 -46 -100 5 -25 27 -60 72 -111 104 -118
222 -168 308 -132 l39 16 -6 50 c-8 63 -18 78 -125 176 -111 102 -181 132
-242 101z"/>
<path d="M5583 7110 c-45 -18 -54 -76 -28 -175 19 -74 45 -115 108 -169 72
-60 108 -76 186 -83 52 -4 75 -2 102 12 85 43 102 93 49 147 -28 27 -35 30
-74 24 -25 -4 -54 -2 -68 4 -27 13 -74 78 -113 157 -39 77 -99 108 -162 83z"/>
<path d="M3630 6614 c-82 -36 -260 -129 -317 -166 -61 -39 -103 -97 -103 -140
0 -26 47 -75 77 -81 33 -6 120 11 148 30 11 7 28 13 38 13 17 0 18 -5 12 -37
-3 -21 -18 -65 -32 -98 -62 -148 -64 -215 -6 -215 16 0 42 -4 60 -9 24 -7 40
-5 65 7 36 19 78 74 78 104 0 11 16 58 36 106 20 48 50 121 67 162 17 41 43
105 59 142 39 92 37 128 -7 167 -30 26 -44 31 -88 31 -29 0 -68 -7 -87 -16z"/>
</g>
</svg>
